<?xml version="1.0" ?><svg id="Call" style="enable-background:new 0 0 32 32;" version="1.1" viewBox="0 0 32 32" xml:space="preserve" xmlns="http://www.w3.org/2000/svg" xmlns:xlink="http://www.w3.org/1999/xlink"><style type="text/css">
	.st0{fill:#F25949;}
	.st1{fill:#AE3421;}
</style><g><path class="st0" d="M21.169,19.985c-1.237-0.396-2.588,0.227-3.085,1.411c-0.029,0.068-0.057,0.138-0.083,0.207   c-3.359-1.435-6.169-4.246-7.604-7.604c0.07-0.026,0.139-0.054,0.208-0.083c1.186-0.499,1.805-1.854,1.41-3.085   C9.184,2,9.109,2,8.199,2C4.781,2,2,4.781,2,8.199C2,20.22,11.78,30,23.801,30C27.219,30,30,27.219,30,23.801   C30,22.891,30,22.816,21.169,19.985z"/><path class="st1" d="M19.232,13.183c0.256,0,0.512-0.098,0.707-0.293l4.242-4.243c0.391-0.391,0.391-1.023,0-1.414   s-1.023-0.391-1.414,0l-4.242,4.243c-0.391,0.391-0.391,1.023,0,1.414C18.721,13.085,18.977,13.183,19.232,13.183z"/><path class="st1" d="M16.427,16.005h3.356c0.27,0,0.529-0.107,0.719-0.298h0c0.641-0.641,0.187-1.737-0.72-1.737l-1.321,0   c-0.562,0-1.018-0.456-1.018-1.018l0-1.321c0-0.907-1.096-1.361-1.737-0.72c-0.191,0.191-0.298,0.45-0.298,0.719l0,3.356   C15.409,15.55,15.865,16.005,16.427,16.005z"/></g></svg>